<svg width="998" height="233" viewBox="0 0 998 233" fill="none" xmlns="http://www.w3.org/2000/svg">
<path d="M0.616001 187V0.375992H38.248V187H0.616001ZM67.568 187V50.808H102.64L103.92 75.384H105.968C110.405 66.68 116.891 60.024 125.424 55.416C134.128 50.6373 144.027 48.248 155.12 48.248C167.237 48.248 177.563 50.9787 186.096 56.44C194.8 61.9013 200.944 69.6667 204.528 79.736H206.832C211.952 68.8133 219.205 60.8773 228.592 55.928C237.979 50.808 248.645 48.248 260.592 48.248C278.341 48.248 292.08 53.368 301.808 63.608C311.707 73.848 316.656 89.6347 316.656 110.968V187H280.304V115.832C280.304 103.715 278 94.072 273.392 86.904C268.784 79.736 260.336 76.152 248.048 76.152C236.443 76.152 227.227 79.9067 220.4 87.416C213.573 94.7547 210.16 104.312 210.16 116.088V187H173.808V116.856C173.808 104.056 171.333 94.072 166.384 86.904C161.605 79.736 153.413 76.152 141.808 76.152C129.861 76.152 120.56 79.9067 113.904 87.416C107.248 94.7547 103.92 104.312 103.92 116.088V187H67.568ZM403.258 189.56C389.946 189.56 378.17 186.659 367.93 180.856C357.861 175.053 350.01 166.861 344.378 156.28C338.746 145.699 335.93 133.24 335.93 118.904C335.93 104.397 338.746 91.9387 344.378 81.528C350.01 70.9467 357.861 62.84 367.93 57.208C378.17 51.4053 389.946 48.504 403.258 48.504C416.911 48.504 428.175 50.8933 437.05 55.672C446.095 60.4507 452.581 66.5947 456.506 74.104H458.298L459.322 50.808H493.882V187H457.53V162.68H455.738C451.471 170.872 444.645 177.443 435.258 182.392C425.871 187.171 415.205 189.56 403.258 189.56ZM414.266 161.656C423.311 161.656 430.991 159.864 437.306 156.28C443.791 152.696 448.741 148.003 452.154 142.2C455.567 136.227 457.274 129.656 457.274 122.488V114.296C457.274 107.299 455.567 100.984 452.154 95.352C448.741 89.5493 443.791 84.9413 437.306 81.528C430.991 78.1147 423.311 76.408 414.266 76.408C401.807 76.408 391.738 80.0773 384.058 87.416C376.378 94.7547 372.538 105.251 372.538 118.904C372.538 132.216 376.378 142.712 384.058 150.392C391.738 157.901 401.807 161.656 414.266 161.656ZM588.932 232.312C567.599 232.312 550.959 228.387 539.012 220.536C527.236 212.856 520.665 202.36 519.3 189.048H553.86C555.225 195.363 558.98 200.056 565.124 203.128C571.439 206.2 579.545 207.736 589.444 207.736C601.732 207.736 611.545 205.347 618.884 200.568C626.393 195.789 630.148 187.853 630.148 176.76V153.208H628.612C624.516 161.229 617.775 167.459 608.388 171.896C599.172 176.333 589.017 178.552 577.924 178.552C564.953 178.552 553.689 175.907 544.132 170.616C534.575 165.155 527.151 157.56 521.86 147.832C516.74 137.933 514.18 126.499 514.18 113.528C514.18 100.387 516.911 88.952 522.372 79.224C527.833 69.496 535.428 61.9013 545.156 56.44C554.884 50.9787 566.148 48.248 578.948 48.248C590.553 48.248 600.708 50.552 609.412 55.16C618.116 59.5973 624.601 65.656 628.868 73.336H630.66L632.196 50.808H666.5V172.408C666.5 191.693 660.015 206.456 647.044 216.696C634.244 227.107 614.873 232.312 588.932 232.312ZM590.212 151.672C602.329 151.672 611.972 148.515 619.14 142.2C626.479 135.715 630.148 127.523 630.148 117.624V110.456C630.148 100.045 626.564 91.512 619.396 84.856C612.399 78.2 602.841 74.872 590.724 74.872C578.607 74.872 568.879 78.3707 561.54 85.368C554.372 92.3653 550.788 101.667 550.788 113.272C550.788 125.219 554.372 134.605 561.54 141.432C568.708 148.259 578.265 151.672 590.212 151.672ZM766.814 189.304C750.43 189.304 736.179 186.488 724.062 180.856C712.115 175.224 702.814 167.203 696.158 156.792C689.673 146.381 686.43 133.923 686.43 119.416C686.43 104.739 689.758 92.1093 696.414 81.528C703.07 70.776 712.371 62.584 724.318 56.952C736.265 51.1493 750.259 48.248 766.302 48.248C783.198 48.248 797.534 51.4053 809.31 57.72C821.257 63.864 830.131 72.7387 835.934 84.344C841.907 95.9493 844.297 109.944 843.102 126.328H722.782C723.123 138.275 727.305 147.576 735.326 154.232C743.347 160.888 754.099 164.216 767.582 164.216C778.163 164.216 787.038 162.424 794.206 158.84C801.545 155.085 806.238 150.221 808.286 144.248H842.59C841.225 153.293 837.043 161.229 830.046 168.056C823.219 174.712 814.345 179.917 803.422 183.672C792.499 187.427 780.297 189.304 766.814 189.304ZM766.046 73.592C753.758 73.592 743.774 76.4933 736.094 82.296C728.585 87.928 724.062 95.7787 722.526 105.848H807.262C806.579 95.7787 802.654 87.928 795.486 82.296C788.318 76.4933 778.505 73.592 766.046 73.592ZM927.312 189.56C904.613 189.56 887.205 185.464 875.088 177.272C862.971 169.08 856.485 157.987 855.632 143.992H891.216C892.24 159.352 904.613 167.032 928.336 167.032C938.747 167.032 946.939 165.667 952.912 162.936C958.885 160.035 961.872 155.512 961.872 149.368C961.872 144.76 960.763 141.347 958.544 139.128C956.325 136.739 952.571 134.947 947.28 133.752C941.989 132.557 934.651 131.533 925.264 130.68C909.733 129.144 897.189 127.011 887.632 124.28C878.075 121.379 871.077 117.283 866.64 111.992C862.373 106.701 860.24 99.6187 860.24 90.744C860.24 77.7733 866.128 67.448 877.904 59.768C889.851 52.088 906.405 48.248 927.568 48.248C947.195 48.248 962.811 52.0027 974.416 59.512C986.021 67.0213 992.421 77.688 993.616 91.512H959.056C958.373 84.344 955.131 79.0533 949.328 75.64C943.525 72.2267 936.187 70.52 927.312 70.52C917.925 70.52 910.245 71.9707 904.272 74.872C898.469 77.6027 895.568 81.9547 895.568 87.928C895.568 93.9013 898.469 97.912 904.272 99.96C910.075 102.008 919.547 103.715 932.688 105.08C948.389 106.445 961.019 108.579 970.576 111.48C980.133 114.211 987.045 118.392 991.312 124.024C995.579 129.485 997.712 137.165 997.712 147.064C997.712 159.864 991.909 170.189 980.304 178.04C968.869 185.72 951.205 189.56 927.312 189.56Z" fill="#1D2D35"/>
</svg>
